<?xml version="1.0" encoding="UTF-8" standalone="no"?>
<!-- Created with Inkscape (http://www.inkscape.org/) -->

<svg
   version="1.0"
   width="1000"
   height="748.82214"
   id="svg6472"
   xmlns:xlink="http://www.w3.org/1999/xlink"
   xmlns="http://www.w3.org/2000/svg"
   xmlns:svg="http://www.w3.org/2000/svg"
   xmlns:rdf="http://www.w3.org/1999/02/22-rdf-syntax-ns#"
   xmlns:cc="http://creativecommons.org/ns#"
   xmlns:dc="http://purl.org/dc/elements/1.1/">
  <metadata
     id="metadata4351">
    <rdf:RDF>
      <cc:Work
         rdf:about="">
        <dc:format>image/svg+xml</dc:format>
        <dc:type
           rdf:resource="http://purl.org/dc/dcmitype/StillImage" />
      </cc:Work>
    </rdf:RDF>
  </metadata>
  <defs
     id="defs6474">
    <linearGradient
       id="linearGradient4399">
      <stop
         style="stop-color:#a7d1e8;stop-opacity:1;"
         offset="0"
         id="stop4401" />
      <stop
         style="stop-color:#a7d1e8;stop-opacity:0;"
         offset="1"
         id="stop4403" />
    </linearGradient>
    <linearGradient
       id="linearGradient7282">
      <stop
         id="stop7284"
         style="stop-color:#5e94ca;stop-opacity:1"
         offset="0" />
      <stop
         id="stop7286"
         style="stop-color:#1c458e;stop-opacity:1"
         offset="1" />
    </linearGradient>
    <linearGradient
       id="linearGradient7264">
      <stop
         id="stop7266"
         style="stop-color:#5e94ca;stop-opacity:1"
         offset="0" />
      <stop
         id="stop7268"
         style="stop-color:#5e94ca;stop-opacity:0"
         offset="1" />
    </linearGradient>
    <linearGradient
       id="linearGradient7230">
      <stop
         id="stop7232"
         style="stop-color:#5e94ca;stop-opacity:1"
         offset="0" />
      <stop
         id="stop7234"
         style="stop-color:#000080;stop-opacity:0"
         offset="1" />
    </linearGradient>
    <linearGradient
       id="linearGradient7152">
      <stop
         id="stop7154"
         style="stop-color:#0072b4;stop-opacity:1"
         offset="0" />
      <stop
         id="stop7156"
         style="stop-color:#0072b4;stop-opacity:0"
         offset="1" />
    </linearGradient>
    <linearGradient
       id="linearGradient7120">
      <stop
         id="stop7122"
         style="stop-color:#007bbd;stop-opacity:1"
         offset="0" />
      <stop
         id="stop7124"
         style="stop-color:#007bbd;stop-opacity:0"
         offset="1" />
    </linearGradient>
    <linearGradient
       id="linearGradient6499">
      <stop
         id="stop6501"
         style="stop-color:#007bbd;stop-opacity:1"
         offset="0" />
      <stop
         id="stop6503"
         style="stop-color:#007bbd;stop-opacity:0"
         offset="1" />
    </linearGradient>
    <linearGradient
       x1="242.37477"
       y1="511.68008"
       x2="225.80212"
       y2="140.86739"
       id="linearGradient7236"
       xlink:href="#linearGradient7230"
       gradientUnits="userSpaceOnUse"
       gradientTransform="matrix(0.3576965,0,0,0.3576965,54.07383,161.80565)" />
    <linearGradient
       x1="355.07977"
       y1="306.27048"
       x2="355.07977"
       y2="431.03497"
       id="linearGradient7239"
       xlink:href="#linearGradient7152"
       gradientUnits="userSpaceOnUse"
       gradientTransform="matrix(-0.3793752,0,0,0.3576965,342.39133,161.80565)" />
    <linearGradient
       x1="355.07977"
       y1="306.27048"
       x2="355.07977"
       y2="431.03497"
       id="linearGradient7242"
       xlink:href="#linearGradient7152"
       gradientUnits="userSpaceOnUse"
       gradientTransform="matrix(0.3576965,0,0,0.3576965,54.07383,161.80565)" />
    <linearGradient
       x1="252.18178"
       y1="296.51114"
       x2="252.18178"
       y2="419.55664"
       id="linearGradient7245"
       xlink:href="#linearGradient7120"
       gradientUnits="userSpaceOnUse"
       gradientTransform="matrix(0.3576965,0,0,0.3576965,54.07383,161.80565)" />
    <linearGradient
       x1="321.77341"
       y1="562.26984"
       x2="323.13477"
       y2="627.052"
       id="linearGradient7257"
       xlink:href="#linearGradient6499"
       gradientUnits="userSpaceOnUse"
       gradientTransform="matrix(0.3576965,0,0,0.3576965,54.07383,161.80565)" />
    <linearGradient
       x1="-34.140274"
       y1="380.06137"
       x2="94.542305"
       y2="621.66949"
       id="linearGradient7270"
       xlink:href="#linearGradient7264"
       gradientUnits="userSpaceOnUse"
       gradientTransform="matrix(0.3576965,0,0,0.3576965,54.07383,161.80565)" />
    <linearGradient
       x1="143.12654"
       y1="457.53351"
       x2="65.654373"
       y2="749.03894"
       id="linearGradient7280"
       xlink:href="#linearGradient7282"
       gradientUnits="userSpaceOnUse"
       gradientTransform="matrix(-0.3576965,0,0,0.3576965,289.85669,161.80565)" />
    <linearGradient
       x1="-34.140274"
       y1="380.06137"
       x2="94.542305"
       y2="621.66949"
       id="linearGradient7296"
       xlink:href="#linearGradient7264"
       gradientUnits="userSpaceOnUse"
       gradientTransform="matrix(0,0.3576965,-0.3576965,0,349.10627,221.80114)" />
    <linearGradient
       x1="-34.140274"
       y1="380.06137"
       x2="94.542305"
       y2="621.66949"
       id="linearGradient7302"
       xlink:href="#linearGradient7264"
       gradientUnits="userSpaceOnUse"
       gradientTransform="matrix(0,-0.3421752,0.3610459,0,-7.0095037,455.78032)" />
    <linearGradient
       x1="-34.140274"
       y1="380.06137"
       x2="94.542305"
       y2="621.66949"
       id="linearGradient7304"
       xlink:href="#linearGradient7264"
       gradientUnits="userSpaceOnUse"
       gradientTransform="matrix(-0.3576965,0,0,0.3576965,289.85669,161.80565)" />
    <linearGradient
       xlink:href="#linearGradient7120"
       id="linearGradient4379"
       x1="87.900986"
       y1="24.226593"
       x2="87.900986"
       y2="65.507378"
       gradientUnits="userSpaceOnUse" />
    <linearGradient
       xlink:href="#linearGradient7120"
       id="linearGradient4389"
       gradientUnits="userSpaceOnUse"
       x1="86.345215"
       y1="11.781172"
       x2="87.900986"
       y2="69.863243" />
    <linearGradient
       xlink:href="#linearGradient7120"
       id="linearGradient4391"
       gradientUnits="userSpaceOnUse"
       x1="86.345215"
       y1="11.781172"
       x2="87.900986"
       y2="69.863243"
       gradientTransform="translate(-10)" />
    <linearGradient
       xlink:href="#linearGradient7120"
       id="linearGradient4393"
       gradientUnits="userSpaceOnUse"
       x1="86.345215"
       y1="11.781172"
       x2="87.900986"
       y2="69.863243"
       gradientTransform="translate(-10)" />
    <linearGradient
       xlink:href="#linearGradient7120"
       id="linearGradient4395"
       gradientUnits="userSpaceOnUse"
       x1="86.345215"
       y1="11.781172"
       x2="87.900986"
       y2="69.863243" />
    <linearGradient
       xlink:href="#linearGradient4399"
       id="linearGradient4405"
       x1="92.049706"
       y1="126.61292"
       x2="92.049706"
       y2="137.12027"
       gradientUnits="userSpaceOnUse" />
    <linearGradient
       xlink:href="#linearGradient7120"
       id="linearGradient4407"
       gradientUnits="userSpaceOnUse"
       x1="87.900986"
       y1="38.709629"
       x2="87.900986"
       y2="72.500351" />
    <linearGradient
       xlink:href="#linearGradient7120"
       id="linearGradient4411"
       x1="77.278931"
       y1="121.02853"
       x2="77.278931"
       y2="139.7103"
       gradientUnits="userSpaceOnUse"
       gradientTransform="translate(10)" />
    <linearGradient
       xlink:href="#linearGradient7120"
       id="linearGradient4413"
       gradientUnits="userSpaceOnUse"
       x1="87.900986"
       y1="40.534054"
       x2="87.900986"
       y2="69.863243" />
  </defs>
  <g
     transform="matrix(29.446408,0,0,29.446408,-1625.4417,-27.090695)"
     id="g18">
    <g
       id="g8">
      <path
         style="fill:#b19365"
         id="path6"
         d="m 71.42,25.12 c -0.43,0.68 -1.27,1.14 -2.27,1.14 -1.5,0 -2.79,-1.01 -2.79,-2.67 0,-1.45 1.1,-2.66 2.79,-2.65 0.82,0 1.41,0.28 1.8,0.52 -0.5,-0.19 -2.23,-0.52 -3.09,0.62 -0.34,0.45 -0.47,1.03 -0.47,1.51 0,1.34 0.87,2.23 1.76,2.23 0.75,0 1.43,-0.54 1.63,-1.58 0.14,-0.71 -0.16,-1.35 -0.41,-1.65 -0.25,-0.31 -0.84,-0.6 -1.36,-0.18 -0.31,0.25 -0.28,0.54 -0.2,0.74 0.15,0.31 0.52,0.31 0.52,0.31 -0.65,0.13 -0.93,-0.38 -0.85,-0.77 0.07,-0.38 0.53,-1 0.53,-1 l 1.42,0.02 1.14,1.06 c 0,0 0.09,0.24 0.16,0.52 0.17,0.65 -0.02,1.37 -0.31,1.83 z m 3.61,1 0.26,-0.28 -1.44,-2.07 h -0.54 v 2.07 l 0.26,0.28 h -1.48 l 0.26,-0.28 v -4.55 l -0.26,-0.28 h 2.15 c 0.78,0 1.59,0.63 1.41,1.59 l 0.26,-0.01 c 0,0 -0.45,0.51 -0.46,0.53 l 0.17,0.13 v 0 l -0.98,0.44 0.31,0.11 1.43,2.04 0.26,0.28 z m -0.34,-3.78 c 0,-0.39 -0.29,-0.89 -0.83,-0.89 h -0.54 v 1.9 h 0.55 c 0.53,0 0.82,-0.52 0.82,-1.01 z m 5.04,3.35 h -1.84 l 0.2,-0.21 v -4.19 l 0.26,-0.28 h -1.5 l 0.25,0.28 v 4.55 l -0.26,0.27 h 3.25 l 0.11,-1.02 z m 5.74,-2.17 c 0,1.87 -1.55,2.6 -2.41,2.6 h -2.61 l 0.26,-0.28 V 22.9 l -0.31,-0.65 0.33,0.14 -0.48,-0.93 0.51,0.04 -0.42,-0.48 h 2.93 c 1.29,-0.01 2.2,1 2.2,2.5 z m -1.02,0.02 c 0,-1.05 -0.49,-2.1 -1.47,-2.1 h -1.29 v 4.04 l -0.2,0.21 h 1.1 c 0.99,0 1.86,-0.89 1.86,-2.15 z M 72.5,12.81 c 0.52,0 0.95,0.39 1.01,0.9 v 0 0 c 0.02,0.17 0.02,0.37 0.02,0.37 h 12.02 v -0.13 l -0.49,-0.34 c 0,0 -10.98,0 -11.09,0 -0.12,-0.72 -0.74,-1.28 -1.49,-1.28 v 0 0 c -0.75,0 -1.37,0.56 -1.49,1.28 -0.11,0 -11.09,0 -11.09,0 l -0.49,0.34 v 0.13 h 12.02 c 0,0 0,-0.19 0.02,-0.37 v 0 0 c 0.1,-0.51 0.53,-0.9 1.05,-0.9 z M 72.18,3.08 c 0.01,0.07 0.08,0.12 0.13,0.14 l 0.02,0.9 -0.1,0.09 c -0.03,0.03 -0.05,0.07 -0.05,0.11 0,0.03 0,0.05 0,0.08 0.01,0.14 0.06,0.28 0.16,0.39 0,0.01 0.01,0.01 0.01,0.01 l 0.01,0.16 c -0.01,0.22 0.01,0.45 0.03,0.68 l 0.02,0.41 c -0.11,0.15 -0.14,0.29 -0.11,0.4 0.02,0.08 0.08,0.13 0.12,0.16 v 0.03 c -0.03,0.24 -0.03,0.46 0,0.69 v 0.61 c -0.11,0.14 -0.11,0.26 -0.11,0.35 0.01,0.11 0.03,0.2 0.08,0.24 0.01,0.09 0.02,0.17 0.04,0.26 l 0.01,0.05 -0.02,1.18 c -0.13,0.32 -0.03,0.52 0.03,0.59 0.01,0.22 0.03,1.03 0.03,1.04 0,0.02 0.02,0.1 0.09,0.1 0.06,0 0.11,-0.04 0.11,-0.11 0.02,-0.29 0.05,-0.85 0.04,-1.02 0.05,-0.07 0.15,-0.27 0.03,-0.59 V 9.87 c 0.01,-0.08 0,-0.17 0,-0.27 V 9.28 c 0,-0.08 0,-0.16 0,-0.24 V 8.79 C 72.76,8.72 72.76,8.64 72.77,8.57 72.82,8.53 72.85,8.46 72.87,8.35 72.89,8.23 72.88,8.1 72.78,7.96 V 7.88 c 0.01,-0.07 0.01,-0.13 0,-0.18 L 72.76,6.64 C 72.79,6.61 72.85,6.56 72.87,6.46 72.89,6.34 72.85,6.21 72.75,6.07 L 72.76,4.83 C 72.88,4.68 72.94,4.51 72.93,4.34 72.93,4.3 72.91,4.26 72.88,4.23 L 72.78,4.14 V 4.13 C 72.79,3.99 72.79,3.85 72.79,3.7 L 72.8,3.24 C 72.85,3.22 72.92,3.17 72.93,3.1 72.93,3.07 72.95,2.96 72.97,2.81 72.99,2.7 72.92,2.6 72.81,2.55 L 72.78,1.98 C 72.83,1.94 72.93,1.83 72.91,1.67 72.89,1.53 72.8,1.46 72.73,1.43 L 72.88,1.17 V 1.16 c 0,-0.02 0,-0.18 -0.1,-0.21 C 72.7,0.93 72.63,0.92 72.56,0.92 h -0.03 c -0.04,0 -0.09,0.01 -0.13,0.02 h -0.01 c -0.01,0 -0.03,0.01 -0.04,0.01 -0.1,0.03 -0.1,0.19 -0.1,0.21 v 0.01 l 0.15,0.26 c -0.06,0.03 -0.16,0.1 -0.18,0.24 -0.02,0.16 0.08,0.27 0.13,0.31 l -0.03,0.57 c -0.11,0.04 -0.17,0.14 -0.15,0.26 -0.01,0.14 0.01,0.24 0.01,0.27 z M 68.42,2.23 c 0.03,0.01 0.1,0.04 0.12,0.06 l 0.08,0.04 0.01,0.02 c 0.01,0.04 0.02,0.1 0.04,0.12 0.01,0.01 0.03,0.08 0.05,0.18 0,0.01 0,0.01 0.01,0.02 l 0.11,0.19 0.02,0.07 0.02,0.01 c 0,0 0.01,0.01 0.01,0.01 -0.01,0.01 -0.02,0.03 -0.02,0.05 0,0.05 0.05,0.11 0.09,0.15 0.07,0.18 0.1,0.29 0.11,0.32 -0.01,0.02 -0.01,0.07 0.02,0.19 0.01,0.04 0.03,0.11 0.04,0.15 0.01,0.05 0.03,0.14 0.06,0.22 l 0.04,0.14 c 0.01,0.02 0.03,0.09 0.03,0.12 0,0.02 0.01,0.08 0.02,0.31 0,0.02 0.01,0.05 0.03,0.06 l 0.08,0.07 c 0.01,0.02 0.04,0.04 0.05,0.06 0.01,0.02 0.03,0.03 0.06,0.05 l 0.22,0.64 c 0.13,0.42 0.28,0.92 0.44,1.4 0.05,0.15 0.09,0.29 0.14,0.44 0.16,0.5 0.32,1.02 0.53,1.5 l 0.96,2.88 c 0.02,0.06 0.08,0.09 0.14,0.07 0.01,0 0.01,0 0.02,-0.01 0.04,-0.03 0.06,-0.08 0.04,-0.13 L 71.18,8.91 C 71.16,8.8 71.13,8.67 71.07,8.54 L 71.05,8.5 71.03,8.45 C 71.03,8.33 71.02,8.21 70.97,8.09 70.91,7.94 70.85,7.8 70.8,7.67 L 70.74,7.47 C 70.66,7.12 70.55,6.76 70.42,6.36 70.38,6.24 70.35,6.16 70.32,6.08 L 69.9,4.66 C 69.92,4.65 69.94,4.64 69.95,4.62 69.96,4.6 69.97,4.57 69.96,4.55 L 69.84,4.18 c 0,-0.02 -0.01,-0.03 -0.03,-0.04 L 69.74,4.08 69.73,4.04 V 3.99 c 0,-0.01 0,-0.02 -0.01,-0.03 L 69.55,3.55 69.57,3.48 c 0.01,-0.02 0.01,-0.04 0,-0.06 L 69.55,3.35 C 69.54,3.33 69.53,3.31 69.51,3.3 L 69.44,3.24 H 69.43 L 69.41,3.1 69.34,2.81 69.16,2.31 C 69.21,2.13 69.2,2.1 69.2,2.08 c 0,-0.01 0,-0.05 0,-0.07 0,-0.03 0.01,-0.06 0,-0.08 0,-0.02 0,-0.08 0,-0.15 0,-0.04 -0.03,-0.08 -0.07,-0.09 L 69.04,1.67 68.95,1.64 68.88,1.62 c -0.02,0 -0.03,0 -0.05,0 l -0.09,0.03 c -0.08,0 -0.13,0.03 -0.13,0.07 0,0.01 -0.02,0.03 -0.05,0.07 l -0.09,0.03 h -0.01 c -0.02,0.01 -0.09,0.06 -0.1,0.11 -0.01,0.04 0,0.13 0,0.17 0,0.05 0.01,0.11 0.06,0.13 z m -8,8.49 c 0.02,0.03 0.04,0.05 0.05,0.06 0.04,0.04 0.18,0.13 0.23,0.15 0.05,0.04 0.11,0.06 0.16,0.07 0.03,0.01 0.06,0.02 0.11,0.04 0.06,0.02 0.12,0.05 0.17,0.05 0.01,0 0.02,0 0.03,0 0.05,0.01 0.13,0.02 0.18,-0.02 0.02,-0.02 0.07,-0.08 0.07,-0.11 0,-0.02 -0.1,0.02 -0.2,-0.08 -0.02,-0.02 -0.13,-0.11 -0.13,-0.14 0,-0.03 0.07,-0.16 0.09,-0.16 0.02,0 0.1,0.03 0.1,0.03 0.09,0.03 0.2,0.09 0.28,0.16 0.19,0.18 0.43,0.18 0.45,0.18 0.73,-0.06 1.47,0.34 1.54,0.41 0.11,0.1 0.19,0.08 0.2,0.08 h 0.01 l 0.01,-0.01 c 0.15,-0.14 0.41,-0.1 0.41,-0.1 l 1.76,0.51 c 0.16,0.06 0.31,0.1 0.45,0.13 l 3.97,1.16 c 0.01,0 0.02,0 0.03,0 0.04,0 0.08,-0.02 0.1,-0.06 0.01,-0.03 0.01,-0.06 0,-0.09 -0.01,-0.03 -0.04,-0.05 -0.07,-0.06 -0.25,-0.08 -1.11,-0.38 -2.19,-0.72 -0.14,-0.07 -0.28,-0.12 -0.41,-0.16 -0.11,-0.03 -0.23,-0.06 -0.37,-0.09 -2.09,-0.67 -3.26,-1.06 -3.39,-1.11 -0.1,-0.04 -0.11,-0.07 -0.11,-0.08 0,-0.02 0.05,-0.06 0.07,-0.07 0.03,-0.02 0.05,-0.04 0.05,-0.07 V 10.59 L 64.05,10.58 C 64,10.55 63.79,10.54 63.49,10.55 63.1,10.56 61.77,10.38 61.53,10.04 61.48,9.96 61.41,9.9 61.35,9.84 61.3,9.8 61.25,9.75 61.21,9.7 61.06,9.5 60.77,9.43 60.68,9.74 c -0.07,0.23 -0.36,0.24 -0.42,0.47 -0.03,0.1 0.07,0.17 0.12,0.26 0,0.08 -0.02,0.18 0.04,0.25 z M 82.4,10.45 c -0.24,0.08 -0.5,0.16 -0.74,0.23 -0.08,0.02 -0.17,0.02 -0.26,0.02 h -0.02 c -0.02,0 -0.05,-0.01 -0.07,-0.03 -0.01,-0.01 -0.03,-0.01 -0.04,-0.02 l -0.04,-0.01 -0.05,0.08 0.03,0.03 c 0,0 0.01,0.01 0.01,0.01 0.01,0.01 0.01,0.01 0.02,0.02 0.01,0.01 0.01,0.02 0.02,0.03 -0.01,0.01 -0.02,0.01 -0.03,0.01 -0.03,0.01 -0.05,0.02 -0.08,0.02 -0.04,0.01 -0.08,0.02 -0.11,0.03 -0.07,0.03 -0.14,0.06 -0.21,0.08 -0.06,0.03 -0.13,0.05 -0.19,0.08 -0.07,0.03 -0.15,0.05 -0.25,0.08 -0.24,0.07 -0.49,0.14 -0.73,0.21 -0.03,0.01 -0.07,0.02 -0.1,0.02 -0.02,0.01 -0.05,0.01 -0.07,0.02 -0.03,0.01 -0.07,0.02 -0.1,0.03 -0.06,0.02 -0.13,0.03 -0.19,0.05 -0.13,0.03 -0.24,0.07 -0.36,0.11 -0.07,0.02 -0.14,0.05 -0.22,0.07 -0.16,0.05 -0.31,0.11 -0.46,0.18 l -0.08,0.03 c -0.14,0.06 -0.28,0.12 -0.42,0.18 -0.09,0.04 -0.18,0.08 -0.27,0.12 -0.11,0.05 -0.25,0.09 -0.37,0.13 -0.1,0.03 -0.2,0.06 -0.3,0.1 -0.19,0.07 -0.38,0.13 -0.57,0.19 -0.1,0.03 -0.2,0.08 -0.3,0.1 -0.07,0.02 -0.14,0.04 -0.21,0.06 -0.13,0.04 -0.27,0.08 -0.39,0.12 -0.04,0.01 -0.08,0.03 -0.12,0.04 -0.07,0.02 -0.12,0.04 -0.19,0.05 -0.06,0.02 -0.13,0.04 -0.2,0.06 -0.08,0.02 -0.04,0.01 -0.1,0.03 -0.06,0.02 -0.11,0.04 -0.1,0.09 0.01,0.03 0.03,0.05 0.11,0.05 0,0 0.15,-0.01 0.23,-0.03 0.21,-0.04 0.41,-0.09 0.64,-0.14 0.09,-0.02 0.22,-0.09 0.31,-0.11 0.09,-0.02 0.16,-0.03 0.26,-0.05 0.07,-0.02 0.17,-0.04 0.24,-0.06 0.12,-0.03 0.22,-0.09 0.32,-0.11 0.17,-0.04 0.33,-0.06 0.47,-0.14 0.13,-0.08 0.27,-0.09 0.42,-0.14 0.04,-0.01 0.08,-0.03 0.11,-0.04 0.02,-0.01 0.04,-0.01 0.05,-0.02 0.06,-0.02 0.11,-0.05 0.17,-0.07 0.12,-0.05 0.23,-0.11 0.36,-0.14 0.06,-0.01 0.12,-0.03 0.17,-0.05 0.1,-0.03 0.19,-0.06 0.29,-0.07 0.03,0 0.07,-0.01 0.1,-0.02 h 0.02 c 0.13,-0.03 0.25,-0.06 0.37,-0.1 0.11,-0.03 0.23,-0.07 0.35,-0.09 l 0.15,-0.03 c 0.15,-0.03 0.31,-0.06 0.46,-0.1 0.09,-0.02 0.17,-0.05 0.26,-0.07 0.05,-0.01 0.09,-0.03 0.14,-0.04 0.03,-0.01 0.06,-0.01 0.08,-0.02 0.05,-0.01 0.09,-0.02 0.14,-0.04 0.15,-0.06 0.3,-0.12 0.43,-0.17 l 0.02,-0.01 c 0.05,-0.02 0.1,-0.04 0.13,-0.09 0.03,-0.05 0.07,-0.06 0.14,-0.06 0.07,-0.01 0.14,-0.01 0.21,-0.02 0.2,-0.02 0.4,-0.03 0.6,-0.06 0.14,-0.02 0.3,-0.05 0.46,-0.1 0.12,-0.03 0.23,-0.07 0.35,-0.11 0.14,-0.05 0.29,-0.1 0.43,-0.14 0.19,-0.05 0.6,-0.14 0.78,-0.18 0.11,-0.03 0.23,-0.05 0.34,-0.08 0.07,-0.02 0.17,-0.07 0.16,-0.14 0,-0.04 -0.02,-0.08 -0.06,-0.1 -0.05,-0.04 -0.07,-0.09 -0.07,-0.17 0,-0.04 -0.05,-0.11 -0.1,-0.11 h -0.03 c -0.07,-0.01 -0.16,-0.02 -0.23,0 -0.09,0.03 -0.4,0.09 -0.5,0.11 -0.14,0.03 -0.29,0.06 -0.43,0.11 -0.18,0.07 -0.36,0.13 -0.54,0.18 -0.07,0.02 -0.14,0.04 -0.21,0.06 z M 81.84,6.67 81.02,7.35 c -0.02,0 -0.07,0.01 -0.09,0.03 -0.03,0.02 -0.04,0.06 -0.05,0.08 -0.26,0.19 -5.97,4.41 -6.66,4.93 -0.04,0.03 -0.05,0.08 -0.02,0.13 v 0 c 0.03,0.05 0.09,0.06 0.14,0.03 C 75.1,12 80.77,7.98 81.1,7.74 81.14,7.76 81.19,7.73 81.21,7.72 81.23,7.71 81.26,7.67 81.26,7.65 81.31,7.62 81.44,7.55 81.53,7.51 81.62,7.46 82.28,7.05 82.41,6.99 82.7,6.89 83,6.68 82.82,6.32 82.74,6.15 82.53,6.08 82.35,6.13 82.08,6.21 82.1,6.5 82.1,6.53 c -0.07,0.03 -0.14,0.01 -0.18,0.01 -0.01,0 -0.02,0.01 -0.02,0.02 0,0.01 -0.01,0.02 -0.01,0.03 -0.01,0.03 -0.03,0.06 -0.05,0.08 z M 62.53,6.96 c 0.11,0.03 0.2,0.06 0.28,0.13 0.08,0.07 0.26,0.14 0.34,0.2 0.07,0.06 0.23,0.16 0.31,0.18 0.07,0.02 0.15,0.07 0.19,0.12 0.04,0.05 0.16,0.06 0.16,0.06 0,0 0.07,0.07 0.11,0.1 0.04,0.03 0.28,0.15 0.36,0.23 0.08,0.08 0.34,0.21 0.52,0.36 0.17,0.14 0.3,0.22 0.39,0.27 0.1,0.05 0.26,0.18 0.35,0.26 0.09,0.08 0.24,0.16 0.33,0.24 0.09,0.08 0.29,0.2 0.44,0.29 0.15,0.1 0.34,0.26 0.46,0.33 0.12,0.08 0.39,0.24 0.49,0.32 0.1,0.08 0.43,0.32 0.6,0.43 0.17,0.1 0.35,0.24 0.5,0.36 0.15,0.12 0.59,0.4 0.98,0.67 0.39,0.26 1.25,0.86 1.37,0.94 0.12,0.07 0.18,0.02 0.19,0 0.01,-0.03 0.03,-0.07 -0.06,-0.15 C 70.75,12.22 70.3,11.9 70.11,11.76 69.92,11.62 69.37,11.2 69.23,11.09 69.09,10.98 68.13,10.29 67.91,10.13 67.69,9.97 67.39,9.76 67.23,9.65 67.07,9.54 66.86,9.39 66.67,9.27 66.48,9.15 66.37,9.01 66.11,8.84 65.85,8.67 65.74,8.54 65.51,8.41 65.28,8.28 65.19,8.18 65.07,8.08 64.95,7.98 64.76,7.91 64.66,7.8 64.56,7.69 64.37,7.62 64.37,7.62 64.35,7.56 64.16,7.46 64.11,7.42 64.06,7.39 63.65,6.97 63.47,6.83 63.29,6.69 63.14,6.63 63.07,6.58 63,6.53 62.96,6.43 62.77,6.23 62.6,6.06 62.33,6.16 62.23,6.3 c -0.11,0.14 -0.1,0.25 -0.04,0.42 0.03,0.16 0.23,0.21 0.34,0.24 z m 10.62,4.87 c 0.01,0 0.01,0.01 0.02,0.01 0.01,0.01 0.04,0.02 0.08,0 0.04,-0.02 0.08,-0.07 0.1,-0.15 0.04,-0.11 0.08,-0.28 0.13,-0.45 0.04,-0.14 0.08,-0.29 0.12,-0.42 0.11,-0.37 0.44,-1.26 0.61,-1.73 C 74.27,8.92 74.32,8.8 74.32,8.78 74.33,8.75 74.33,8.73 74.34,8.71 74.35,8.67 74.36,8.62 74.41,8.48 74.42,8.45 74.44,8.4 74.46,8.35 74.57,8.04 74.79,7.41 74.9,7.01 74.91,6.97 74.93,6.93 74.94,6.89 74.97,6.85 74.99,6.8 75,6.76 75.01,6.72 75.02,6.69 75.03,6.65 75.05,6.6 75.06,6.55 75.08,6.48 75.08,6.46 75.09,6.44 75.11,6.41 75.13,6.36 75.16,6.28 75.21,6.15 75.26,6 75.39,5.6 75.48,5.33 75.53,5.19 75.56,5.08 75.57,5.07 75.58,5.06 75.59,5.02 75.61,4.97 75.65,4.89 75.7,4.76 75.77,4.59 75.89,4.3 76.12,3.72 76.28,3.29 76.34,3.14 76.39,3 76.44,2.88 76.54,2.63 76.63,2.42 76.67,2.25 76.74,1.98 76.52,1.76 76.41,1.73 76.31,1.7 76.28,1.76 76.26,1.8 V 1.81 C 76.18,1.99 76.1,2.31 76.04,2.56 76,2.72 75.97,2.86 75.94,2.93 75.72,3.55 75.63,3.83 75.53,4.16 75.49,4.28 75.45,4.41 75.4,4.57 75.32,4.82 75.16,5.28 75,5.77 74.79,6.4 74.57,7.05 74.49,7.3 74.4,7.58 74.03,8.72 73.75,9.56 c -0.17,0.52 -0.3,0.92 -0.32,0.98 -0.05,0.16 -0.26,0.85 -0.3,1.03 -0.03,0.13 -0.04,0.21 0.02,0.26 z M 80.19,3.73 79.6,3.31 C 79.57,3.29 79.52,3.29 79.49,3.32 79.46,3.35 79.44,3.4 79.45,3.44 l 0.01,0.08 c 0.01,0.06 0,0.13 -0.04,0.18 l -1.4,2.08 c 0,0 -0.01,0.01 -0.01,0.01 l -0.04,0.12 c 0,0.01 -0.01,0.03 -0.03,0.03 L 77.8,6.01 c -0.04,0.02 -0.07,0.06 -0.07,0.11 0,0.02 0,0.05 0.02,0.07 v 0 c 0.01,0.01 0.01,0.02 0.02,0.03 -1.23,1.68 -4.05,5.62 -4.1,5.68 -0.05,0.06 -0.11,0.17 -0.03,0.22 0.08,0.05 0.18,-0.09 0.18,-0.09 1,-1.27 3.62,-4.8 4.22,-5.61 0.01,0 0.02,0.01 0.03,0.01 v 0 c 0.02,0 0.05,0 0.07,-0.01 0.05,-0.02 0.07,-0.06 0.08,-0.11 l 0.02,-0.16 c 0,-0.01 0.01,-0.03 0.02,-0.04 l 0.1,-0.07 c 0,0 0.01,-0.01 0.01,-0.01 l 1.5,-2.01 c 0.04,-0.05 0.1,-0.09 0.16,-0.1 l 0.08,-0.01 c 0.05,-0.01 0.08,-0.04 0.1,-0.08 v 0 C 80.24,3.8 80.22,3.76 80.19,3.73 Z m -14.56,17.28 0.24,0.28 -1.05,3.04 -1.04,-3.04 0.28,-0.27 h -1.54 l 0.25,0.28 -0.83,2.94 -1.11,-2.94 0.23,-0.28 h -1.51 l 0.27,0.28 1.91,5.04 0.27,-0.29 1.08,-3.91 1.44,4.21 0.26,-0.28 c 0.35,-1.02 1.64,-4.77 1.64,-4.77 l 0.31,-0.28 h -1.1 z m -2.67,-5.54 h -1.28 l 0.25,0.26 v 3.62 l -0.25,0.27 h 1.28 l -0.25,-0.27 v -3.62 z m 17.17,0 h -1.28 l 0.25,0.26 v 3.62 l -0.25,0.27 h 1.28 L 79.88,19.35 V 15.73 Z M 66.48,16.02 V 15.46 H 63.59 L 63.45,16.45 64,15.88 h 1.69 l -2.2,3.16 v 0.58 h 3.01 l 0.1,-0.91 c 0,0 -0.47,0.5 -0.47,0.5 h -1.8 l 1.36,-1.99 0.59,-0.39 -0.21,-0.12 0.76,-0.49 z m 11.12,3.45 c 0,0 -0.16,1.19 -1.63,1.19 -0.98,0 -1.7,-0.41 -2.18,-0.98 -0.69,-0.82 -0.95,-1.85 -0.95,-1.85 H 72.3 c 0,0 0,1.53 0,1.53 l 0.25,0.27 h -1.28 l 0.25,-0.27 v -3.62 l -0.25,-0.27 h 1.86 c 0.18,0 0.36,0.04 0.53,0.12 0.41,0.19 0.66,0.57 0.66,0.98 0,0.84 -0.83,1.15 -0.83,1.15 v 0 l 0.31,0.11 c 0,0 0.24,0.84 0.72,1.54 0.31,0.45 0.79,0.89 1.64,0.89 0.62,0 0.93,-0.29 1,-0.44 l -0.17,-0.18 -0.5,0.28 0.23,-0.46 z M 72.87,17.4 c 0.38,0 0.69,-0.42 0.69,-0.81 0,-0.24 -0.14,-0.71 -0.68,-0.71 H 72.3 v 1.52 z m 11.38,-1.66 0.25,-0.27 h -1 l 0.25,0.27 c 0,0.19 0,2.8 0,2.8 l -2.18,-3.06 h -1 l 0.25,0.27 c 0,0 0,3.62 0,3.62 l -0.25,0.27 h 0.99 l -0.25,-0.27 v -2.88 l 2.24,3.15 h 0.95 l -0.25,-0.27 z m -13.21,3.88 h -1.32 l 0.25,-0.27 -0.25,-0.68 0.19,-0.18 h -2 l -0.38,0.86 0.25,0.27 h -1.06 l 0.25,-0.27 0.42,-0.96 -0.33,-0.32 h 0.48 l 1.04,-2.34 -0.24,-0.27 h 1.39 l -0.25,0.27 1.32,3.62 z m -1.54,-1.55 -0.64,-1.75 -0.77,1.75 z m 8.94,-0.85 c 0,1 -0.61,1.85 -1.55,1.85 h -1.92 l 0.22,-0.27 v -3.07 l -0.25,-0.26 c 0,0 1.45,0 1.87,0 1.25,0 1.63,0.9 1.63,1.75 z M 77.6,17.21 c 0,-0.49 -0.16,-1.33 -1.01,-1.33 h -0.63 v 2.57 l -0.19,0.21 h 0.77 c 0.77,0 1.06,-0.78 1.06,-1.45 z m -17.21,-1.74 0.25,0.27 -0.81,2.39 -0.92,-2.39 0.26,-0.27 H 57.8 l 0.25,0.27 -0.77,2.57 -0.45,-1.04 0.33,0.14 -0.61,-1.16 0.38,0.16 -0.44,-0.93 H 55.2 l 0.77,1.32 -0.41,-0.18 0.96,1.49 -0.4,-0.17 1.08,2.01 0.21,-0.29 0.99,-3.21 1.31,3.43 0.21,-0.29 1.29,-3.86 0.26,-0.27 h -1.08 z m 28.77,1.77 H 87.7 c -0.4,0 -0.8,0.03 -0.95,0.36 -0.01,0.03 -0.04,0.12 -0.04,0.12 l 0.43,0.41 0.19,-0.47 v 0 0 0 h 0.84 l -0.2,0.22 v 1.29 c -0.19,0.08 -0.51,0.14 -0.77,0.14 -0.77,0 -1.6,-0.67 -1.6,-1.74 0,-0.86 0.56,-1.77 1.6,-1.77 0.49,0 0.91,0.2 1.09,0.37 0.2,0.18 0.37,0.46 0.37,0.46 L 89,15.52 88.52,15.7 c 0,0 -0.66,-0.33 -1.3,-0.33 -1.43,0 -2.43,0.9 -2.43,2.19 0,0.6 0.21,1.14 0.61,1.57 0.49,0.52 1.18,0.59 1.8,0.59 0.87,0 1.56,-0.37 1.56,-0.37 v -1.23 l 0.37,-0.43 -0.34,-0.06 z M 71.42,11.82 C 71.4,11.79 69.76,9.52 68.72,8.06 68.7,8 68.67,7.96 68.65,7.92 68.57,7.8 68.47,7.66 68.35,7.54 68.26,7.42 68.17,7.3 68.15,7.26 c 0,0 0,-0.01 0,-0.01 C 68.13,7.2 68.07,7.13 68.04,7.09 68.03,7.08 68.03,7.08 68.03,7.07 68.01,7.01 67.98,6.95 67.93,6.89 67.91,6.86 67.86,6.77 67.84,6.76 v 0 L 67.53,6.32 67.55,6.25 v 0 c 0,-0.04 -0.09,-0.17 -0.13,-0.18 v 0 L 67.35,6.08 67.27,5.97 67.29,5.91 v 0 C 67.29,5.89 67.28,5.88 67.28,5.87 67.27,5.85 67.24,5.81 67.23,5.79 67.21,5.77 67.19,5.76 67.17,5.75 H 67.12 L 66.95,5.51 v -0.09 0 c 0,-0.02 -0.09,-0.14 -0.1,-0.15 L 66.75,5.24 66.62,5.06 v 0 C 66.63,5.03 66.66,4.98 66.64,4.95 66.61,4.91 66.58,4.84 66.55,4.79 66.53,4.75 66.48,4.73 66.41,4.72 H 66.38 L 65.87,4.01 65.82,3.9 C 65.81,3.87 65.8,3.85 65.77,3.83 L 65.66,3.75 65.4,3.37 C 65.38,3.35 65.36,3.33 65.34,3.33 c -0.03,0 -0.05,0 -0.07,0.02 l -0.24,0.18 c -0.04,0.03 -0.05,0.09 -0.02,0.13 l 0.15,0.22 0.02,0.11 c 0.01,0.04 0.03,0.06 0.06,0.08 l 0.11,0.05 0.45,0.62 V 4.8 c 0,0 0,0.01 0,0.01 0,0.02 0,0.04 0,0.05 0.02,0.04 0.05,0.09 0.07,0.11 0.01,0.01 0.02,0.01 0.03,0.02 l 0.11,0.06 0.22,0.29 0.05,0.09 0.01,0.01 0.08,0.08 0.15,0.2 v 0.05 c 0,0.03 0.01,0.06 0.02,0.08 0.02,0.03 0.05,0.07 0.08,0.1 0.02,0.02 0.04,0.03 0.07,0.04 l 0.04,0.01 0.1,0.12 -0.01,0.05 v 0 c 0,0.02 0.06,0.1 0.08,0.12 v 0 h 0.05 l 0.15,0.2 -0.01,0.1 v 0 c 0.01,0.04 0.08,0.12 0.12,0.14 l 0.08,0.01 0.14,0.19 c 0,0.01 0,0.03 0.01,0.04 0.01,0.04 0.03,0.07 0.06,0.11 0.03,0.04 0.07,0.07 0.12,0.1 l 0.12,0.16 c 0.02,0.05 0.03,0.1 0.09,0.14 0.01,0 0.01,0.01 0.02,0.01 0.2,0.27 0.52,0.7 0.53,0.71 0.01,0.01 0.17,0.23 0.41,0.55 0.06,0.13 0.13,0.23 0.22,0.29 0.37,0.49 2.19,2.9 2.24,2.97 0.04,0.04 0.07,0.07 0.11,0.07 0.04,0 0.07,-0.03 0.07,-0.03 -0.01,-0.04 0.07,-0.12 -0.01,-0.23 z"
         class="st0" />
    </g>
  </g>
</svg>
